<mxfile host="app.diagrams.net" modified="2022-04-19T08:20:00.254Z" agent="5.0 (Windows NT 10.0; Win64; x64) AppleWebKit/537.36 (KHTML, like Gecko) Chrome/100.0.4896.127 Safari/537.36" etag="BdJOXVnWm85SqxDi61B8" version="16.3.0" type="github">
  <diagram id="C5RBs43oDa-KdzZeNtuy" name="Page-1">
    <mxGraphModel dx="981" dy="526" grid="1" gridSize="10" guides="1" tooltips="1" connect="1" arrows="1" fold="1" page="1" pageScale="1" pageWidth="827" pageHeight="1169" math="0" shadow="0">
      <root>
        <mxCell id="WIyWlLk6GJQsqaUBKTNV-0" />
        <mxCell id="WIyWlLk6GJQsqaUBKTNV-1" parent="WIyWlLk6GJQsqaUBKTNV-0" />
        <mxCell id="WIyWlLk6GJQsqaUBKTNV-11" value="x&lt;sub&gt;1&amp;nbsp; &amp;nbsp;&lt;span style=&quot;white-space: pre&quot;&gt;	&lt;/span&gt;&lt;/sub&gt;x&lt;sub&gt;2&amp;nbsp;&amp;nbsp;&lt;span style=&quot;white-space: pre&quot;&gt;	&lt;/span&gt;&lt;span style=&quot;white-space: pre&quot;&gt;	&lt;span style=&quot;white-space: pre&quot;&gt;	&lt;/span&gt;&lt;/span&gt;```&lt;span&gt;	&lt;span style=&quot;white-space: pre&quot;&gt;	&lt;/span&gt;&lt;span style=&quot;white-space: pre&quot;&gt;	&lt;/span&gt;&lt;span style=&quot;white-space: pre&quot;&gt;	&lt;/span&gt;&lt;span style=&quot;white-space: pre&quot;&gt;	&lt;/span&gt;&lt;/span&gt;&lt;span&gt;	&lt;/span&gt;&lt;span&gt;	&lt;/span&gt;&lt;span&gt;	&lt;/span&gt;&lt;/sub&gt;x&lt;span style=&quot;font-size: 10px&quot;&gt;&lt;sub&gt;n&lt;/sub&gt;&lt;/span&gt;" style="rounded=1;whiteSpace=wrap;html=1;fontSize=12;glass=0;strokeWidth=1;shadow=0;" parent="WIyWlLk6GJQsqaUBKTNV-1" vertex="1">
          <mxGeometry x="210" y="420" width="390" height="30" as="geometry" />
        </mxCell>
        <mxCell id="D5AEXsrt_JfG66kRxfmI-1" value="全连接层" style="ellipse;whiteSpace=wrap;html=1;" vertex="1" parent="WIyWlLk6GJQsqaUBKTNV-1">
          <mxGeometry x="210" y="320" width="390" height="50" as="geometry" />
        </mxCell>
        <mxCell id="D5AEXsrt_JfG66kRxfmI-2" value="h&lt;sub&gt;1&amp;nbsp; &amp;nbsp;&amp;nbsp;&lt;span style=&quot;white-space: pre&quot;&gt;	&lt;/span&gt;&lt;/sub&gt;h&lt;sub&gt;2&amp;nbsp;&amp;nbsp;&lt;span style=&quot;white-space: pre&quot;&gt;	&lt;/span&gt;&lt;span style=&quot;white-space: pre&quot;&gt;	&lt;/span&gt;&lt;span style=&quot;white-space: pre&quot;&gt;	&lt;/span&gt;&lt;span&gt;&amp;nbsp;&lt;/span&gt;&lt;span&gt;	&lt;/span&gt;&lt;span&gt;	&lt;/span&gt;```&lt;span&gt;	&lt;span style=&quot;white-space: pre&quot;&gt;	&lt;/span&gt;&lt;span style=&quot;white-space: pre&quot;&gt;	&lt;/span&gt;&lt;span style=&quot;white-space: pre&quot;&gt;	&lt;/span&gt;&lt;span style=&quot;white-space: pre&quot;&gt;	&lt;/span&gt;&lt;/span&gt;&lt;span&gt;	&lt;/span&gt;&lt;span&gt;	&lt;/span&gt;&lt;span&gt;	&lt;/span&gt;&lt;/sub&gt;h&lt;span style=&quot;font-size: 10px&quot;&gt;&lt;sub&gt;n&lt;/sub&gt;&lt;/span&gt;" style="rounded=1;whiteSpace=wrap;html=1;fontSize=12;glass=0;strokeWidth=1;shadow=0;" vertex="1" parent="WIyWlLk6GJQsqaUBKTNV-1">
          <mxGeometry x="210" y="240" width="390" height="30" as="geometry" />
        </mxCell>
      </root>
    </mxGraphModel>
  </diagram>
</mxfile>
